<svg xmlns="http://www.w3.org/2000/svg" viewBox="0 0 64 64" fill="none">
  <rect width="64" height="64" rx="18" fill="#0D1726"/>
  <path d="M18 38C18 29.1634 25.1634 22 34 22C38.0156 22 41.6856 23.4781 44.4975 25.9259C40.2471 26.2924 36.9185 29.86 36.9185 34.2069C36.9185 39.007 40.8109 42.8994 45.611 42.8994C45.7317 42.8994 45.8518 42.8969 45.9712 42.8918C43.1622 47.1703 38.3218 50 32.82 50C24.0827 50 18 43.1201 18 38Z" fill="#8FD0FF"/>
  <path d="M25 18.5C27.3 15.9 30.6 14 34.5 14C40.8 14 46 19.2 46 25.5" stroke="#C7B7FF" stroke-width="3" stroke-linecap="round"/>
</svg>
